<?xml version="1.0" encoding="utf-8"?>
<!-- Generator: Adobe Illustrator 16.0.0, SVG Export Plug-In . SVG Version: 6.00 Build 0)  -->
<!DOCTYPE svg PUBLIC "-//W3C//DTD SVG 1.1//EN" "http://www.w3.org/Graphics/SVG/1.1/DTD/svg11.dtd">
<svg version="1.1" xmlns="http://www.w3.org/2000/svg" xmlns:xlink="http://www.w3.org/1999/xlink" x="0px" y="0px" width="232px"
	 height="64px" viewBox="0 0 232 64" enable-background="new 0 0 232 64" xml:space="preserve">
<g id="Layer_2">
</g>
<g id="Layer_1">
	<g>
		<g>
			<path fill="#00B7CE" d="M45.279,27.132c0.421-0.242,0.766-0.046,0.767,0.437l0.031,10.418c0,0.484-0.342,1.077-0.762,1.319
				l-9.068,5.236c-0.42,0.242-0.764,0.043-0.766-0.438l-0.03-10.418c-0.001-0.485,0.341-1.078,0.762-1.32L45.279,27.132z"/>
			<path fill="#00B7CE" d="M33.079,32.368c0.421,0.242,0.763,0.834,0.763,1.32l-0.029,10.418c-0.002,0.48-0.348,0.68-0.768,0.438
				l-9.066-5.236c-0.421-0.242-0.764-0.835-0.761-1.319l0.029-10.418c0.001-0.483,0.347-0.679,0.767-0.437L33.079,32.368z"/>
			<path fill="#00B7CE" d="M45.454,24.75c0.42,0.244,0.422,0.641,0.006,0.882l-10.017,5.823c-0.417,0.241-1.104,0.241-1.523,0
				l-10.082-5.823c-0.421-0.242-0.424-0.639-0.005-0.881l10.016-5.821c0.417-0.244,1.103-0.244,1.524,0L45.454,24.75z"/>
			<polygon fill="#00B7CE" points="15.5,22.968 20.108,25.191 20.108,31.706 20.108,38.697 15.5,41.319 			"/>
			<polygon fill="#00B7CE" points="53.792,22.968 49.184,25.191 49.184,31.706 49.184,38.697 53.792,41.319 			"/>
			<polygon fill="#00B7CE" points="16.613,42.748 20.981,40.365 33.693,47.674 33.693,52.124 			"/>
			<polygon fill="#00B7CE" points="52.679,42.748 48.311,40.365 35.599,47.674 35.599,52.124 			"/>
			<polygon fill="#00B7CE" points="16.533,21.498 20.902,23.881 33.613,16.573 33.613,12.124 			"/>
			<polygon fill="#00B7CE" points="52.6,21.498 48.23,23.881 35.52,16.573 35.52,12.124 			"/>
		</g>
		<g>
			<path fill="#00B7CE" d="M83.408,21.131h-9.441v26.522h-5.824V21.131h-9.44v-4.785h24.705V21.131z"/>
			<path fill="#00B7CE" d="M111.965,47.653h-5.262c-0.997,0-1.718-0.39-2.165-1.169l-6.583-10.025
				c-0.246-0.374-0.517-0.641-0.812-0.801c-0.296-0.159-0.733-0.238-1.311-0.238h-2.49v12.233h-5.824V16.346h9.548
				c2.123,0,3.945,0.219,5.467,0.659c1.522,0.441,2.771,1.059,3.747,1.852c0.974,0.794,1.691,1.743,2.154,2.848
				c0.461,1.104,0.692,2.321,0.692,3.647c0,1.055-0.154,2.051-0.465,2.988c-0.311,0.939-0.759,1.791-1.343,2.556
				s-1.307,1.437-2.165,2.012c-0.859,0.577-1.837,1.033-2.934,1.365c0.374,0.217,0.722,0.473,1.039,0.768
				c0.317,0.296,0.606,0.646,0.865,1.051L111.965,47.653z M96.982,31.242c1.097,0,2.052-0.137,2.869-0.411
				c0.814-0.275,1.485-0.653,2.013-1.138c0.527-0.482,0.921-1.057,1.18-1.721c0.26-0.663,0.39-1.393,0.39-2.187
				c0-1.587-0.523-2.807-1.57-3.659c-1.047-0.851-2.645-1.277-4.796-1.277h-3.724v10.393H96.982z"/>
			<path fill="#00B7CE" d="M121.212,47.653h-5.846V16.346h5.846V47.653z"/>
			<path fill="#00B7CE" d="M138.987,16.346c2.05,0,3.804,0.194,5.262,0.584c1.457,0.39,2.652,0.946,3.584,1.667
				c0.93,0.722,1.613,1.595,2.046,2.62c0.433,1.025,0.649,2.18,0.649,3.465c0,0.736-0.108,1.439-0.325,2.11
				s-0.552,1.299-1.007,1.883c-0.454,0.585-1.032,1.115-1.732,1.592c-0.7,0.476-1.533,0.88-2.5,1.212
				c4.302,0.967,6.451,3.292,6.451,6.972c0,1.328-0.252,2.554-0.757,3.68s-1.241,2.098-2.208,2.913
				c-0.968,0.815-2.158,1.453-3.572,1.916c-1.415,0.461-3.031,0.692-4.852,0.692h-11.821V16.346H138.987z M134.029,20.85v9.05h4.634
				c1.992,0,3.496-0.361,4.514-1.082c1.018-0.722,1.526-1.869,1.526-3.443c0-1.631-0.461-2.793-1.385-3.486
				c-0.924-0.693-2.368-1.039-4.331-1.039H134.029z M139.919,43.106c1.083,0,1.992-0.13,2.729-0.391
				c0.735-0.259,1.324-0.604,1.764-1.038c0.44-0.434,0.759-0.938,0.953-1.516c0.195-0.578,0.292-1.191,0.292-1.841
				c0-0.679-0.108-1.287-0.324-1.829c-0.217-0.542-0.556-1.003-1.018-1.387c-0.462-0.382-1.059-0.674-1.786-0.876
				c-0.729-0.202-1.605-0.303-2.632-0.303h-5.867v9.18H139.919z"/>
			<path fill="#00B7CE" d="M186.577,32c0,2.294-0.378,4.421-1.137,6.375c-0.757,1.957-1.829,3.648-3.215,5.079
				c-1.385,1.428-3.053,2.544-5.002,3.345C175.275,47.6,173.11,48,170.729,48c-2.367,0-4.525-0.4-6.475-1.201
				c-1.948-0.801-3.618-1.917-5.011-3.345c-1.395-1.431-2.473-3.122-3.238-5.079c-0.765-1.954-1.147-4.081-1.147-6.375
				s0.383-4.42,1.147-6.376c0.766-1.956,1.844-3.647,3.238-5.077c1.393-1.429,3.063-2.544,5.011-3.345
				C166.203,16.4,168.361,16,170.729,16c1.588,0,3.081,0.184,4.482,0.551c1.399,0.369,2.684,0.888,3.854,1.56
				c1.169,0.671,2.219,1.487,3.15,2.446c0.931,0.961,1.722,2.033,2.371,3.215c0.649,1.184,1.145,2.469,1.482,3.855
				C186.408,29.011,186.577,30.47,186.577,32z M180.624,32c0-1.717-0.231-3.258-0.694-4.623c-0.461-1.364-1.118-2.521-1.969-3.475
				c-0.853-0.953-1.889-1.682-3.108-2.187s-2.594-0.757-4.124-0.757c-1.531,0-2.905,0.252-4.125,0.757s-2.259,1.234-3.117,2.187
				c-0.859,0.953-1.52,2.11-1.981,3.475c-0.462,1.365-0.693,2.906-0.693,4.623c0,1.717,0.231,3.258,0.693,4.622
				c0.462,1.365,1.122,2.521,1.981,3.466c0.858,0.944,1.897,1.67,3.117,2.175c1.22,0.506,2.594,0.759,4.125,0.759
				c1.53,0,2.904-0.253,4.124-0.759c1.22-0.505,2.256-1.23,3.108-2.175c0.851-0.945,1.508-2.101,1.969-3.466
				C180.393,35.258,180.624,33.717,180.624,32z"/>
			<path fill="#00B7CE" d="M216.5,47.653h-5.803c-0.404,0-0.726-0.101-0.963-0.303c-0.238-0.202-0.43-0.434-0.574-0.693
				l-7.253-12.017c-0.115,0.36-0.253,0.671-0.411,0.932l-6.95,11.085c-0.173,0.246-0.373,0.473-0.596,0.682
				c-0.224,0.21-0.517,0.314-0.877,0.314h-5.435l10.392-16.108l-9.981-15.199h5.804c0.404,0,0.696,0.054,0.877,0.162
				c0.18,0.108,0.351,0.284,0.509,0.53l7.123,11.476c0.145-0.361,0.317-0.723,0.52-1.083l6.539-10.284
				c0.159-0.274,0.333-0.477,0.521-0.607c0.187-0.129,0.426-0.194,0.714-0.194h5.564L206.15,31.307L216.5,47.653z"/>
		</g>
	</g>
</g>
</svg>
